<mxfile host="app.diagrams.net" modified="2023-03-05T11:44:47.961Z" agent="5.0 (Windows NT 10.0; Win64; x64) AppleWebKit/537.36 (KHTML, like Gecko) Chrome/110.0.0.0 Safari/537.36" etag="NEX-4O14rIVyKvGURrLn" version="21.0.2" type="github">
  <diagram name="Page-1" id="c7558073-3199-34d8-9f00-42111426c3f3">
    <mxGraphModel dx="2200" dy="1110" grid="1" gridSize="10" guides="1" tooltips="1" connect="1" arrows="1" fold="1" page="1" pageScale="1" pageWidth="826" pageHeight="1169" background="none" math="0" shadow="0">
      <root>
        <mxCell id="0" />
        <mxCell id="1" parent="0" />
        <mxCell id="FXenyZdL3_Z6IPaVlAPw-100" style="edgeStyle=orthogonalEdgeStyle;rounded=0;orthogonalLoop=1;jettySize=auto;html=1;exitX=1;exitY=0.5;exitDx=0;exitDy=0;entryX=0;entryY=0.5;entryDx=0;entryDy=0;" edge="1" parent="1" source="FXenyZdL3_Z6IPaVlAPw-96" target="FXenyZdL3_Z6IPaVlAPw-98">
          <mxGeometry relative="1" as="geometry" />
        </mxCell>
        <mxCell id="FXenyZdL3_Z6IPaVlAPw-101" value="Data Admin" style="edgeLabel;html=1;align=center;verticalAlign=middle;resizable=0;points=[];" vertex="1" connectable="0" parent="FXenyZdL3_Z6IPaVlAPw-100">
          <mxGeometry x="0.1692" y="-1" relative="1" as="geometry">
            <mxPoint as="offset" />
          </mxGeometry>
        </mxCell>
        <mxCell id="FXenyZdL3_Z6IPaVlAPw-96" value="1&lt;br&gt;Data Admin" style="ellipse;whiteSpace=wrap;html=1;aspect=fixed;" vertex="1" parent="1">
          <mxGeometry x="390" y="80" width="80" height="80" as="geometry" />
        </mxCell>
        <mxCell id="FXenyZdL3_Z6IPaVlAPw-102" style="edgeStyle=orthogonalEdgeStyle;rounded=0;orthogonalLoop=1;jettySize=auto;html=1;exitX=0.5;exitY=1;exitDx=0;exitDy=0;entryX=1;entryY=0.5;entryDx=0;entryDy=0;" edge="1" parent="1" source="FXenyZdL3_Z6IPaVlAPw-98" target="FXenyZdL3_Z6IPaVlAPw-99">
          <mxGeometry relative="1" as="geometry" />
        </mxCell>
        <mxCell id="FXenyZdL3_Z6IPaVlAPw-103" value="Melakukan" style="edgeLabel;html=1;align=center;verticalAlign=middle;resizable=0;points=[];" vertex="1" connectable="0" parent="FXenyZdL3_Z6IPaVlAPw-102">
          <mxGeometry x="0.1655" relative="1" as="geometry">
            <mxPoint as="offset" />
          </mxGeometry>
        </mxCell>
        <mxCell id="FXenyZdL3_Z6IPaVlAPw-98" value="Data Admin" style="shape=partialRectangle;whiteSpace=wrap;html=1;left=0;right=0;fillColor=none;" vertex="1" parent="1">
          <mxGeometry x="606" y="98" width="120" height="40" as="geometry" />
        </mxCell>
        <mxCell id="FXenyZdL3_Z6IPaVlAPw-106" style="edgeStyle=orthogonalEdgeStyle;rounded=0;orthogonalLoop=1;jettySize=auto;html=1;exitX=0;exitY=0.5;exitDx=0;exitDy=0;entryX=0.808;entryY=1.033;entryDx=0;entryDy=0;entryPerimeter=0;" edge="1" parent="1" source="FXenyZdL3_Z6IPaVlAPw-99" target="FXenyZdL3_Z6IPaVlAPw-104">
          <mxGeometry relative="1" as="geometry">
            <Array as="points">
              <mxPoint x="390" y="240" />
              <mxPoint x="247" y="240" />
            </Array>
          </mxGeometry>
        </mxCell>
        <mxCell id="FXenyZdL3_Z6IPaVlAPw-107" value="Login Admin &lt;br&gt;Sukses" style="edgeLabel;html=1;align=center;verticalAlign=middle;resizable=0;points=[];" vertex="1" connectable="0" parent="FXenyZdL3_Z6IPaVlAPw-106">
          <mxGeometry x="0.0455" y="-3" relative="1" as="geometry">
            <mxPoint x="19" y="3" as="offset" />
          </mxGeometry>
        </mxCell>
        <mxCell id="FXenyZdL3_Z6IPaVlAPw-120" style="edgeStyle=orthogonalEdgeStyle;rounded=0;orthogonalLoop=1;jettySize=auto;html=1;exitX=0;exitY=1;exitDx=0;exitDy=0;entryX=1;entryY=0.5;entryDx=0;entryDy=0;" edge="1" parent="1" source="FXenyZdL3_Z6IPaVlAPw-99" target="FXenyZdL3_Z6IPaVlAPw-119">
          <mxGeometry relative="1" as="geometry">
            <Array as="points">
              <mxPoint x="260" y="278" />
              <mxPoint x="260" y="470" />
            </Array>
          </mxGeometry>
        </mxCell>
        <mxCell id="FXenyZdL3_Z6IPaVlAPw-121" value="Login Karyawan &lt;br&gt;Sukses" style="edgeLabel;html=1;align=center;verticalAlign=middle;resizable=0;points=[];" vertex="1" connectable="0" parent="FXenyZdL3_Z6IPaVlAPw-120">
          <mxGeometry x="-0.5751" y="2" relative="1" as="geometry">
            <mxPoint as="offset" />
          </mxGeometry>
        </mxCell>
        <mxCell id="FXenyZdL3_Z6IPaVlAPw-99" value="2&lt;br&gt;Login" style="ellipse;whiteSpace=wrap;html=1;aspect=fixed;" vertex="1" parent="1">
          <mxGeometry x="390" y="210" width="80" height="80" as="geometry" />
        </mxCell>
        <mxCell id="FXenyZdL3_Z6IPaVlAPw-109" style="edgeStyle=orthogonalEdgeStyle;rounded=0;orthogonalLoop=1;jettySize=auto;html=1;exitX=0.5;exitY=1;exitDx=0;exitDy=0;entryX=0;entryY=0.5;entryDx=0;entryDy=0;" edge="1" parent="1" source="FXenyZdL3_Z6IPaVlAPw-104" target="FXenyZdL3_Z6IPaVlAPw-108">
          <mxGeometry relative="1" as="geometry" />
        </mxCell>
        <mxCell id="FXenyZdL3_Z6IPaVlAPw-110" value="Input Data &lt;br&gt;Karyawan" style="edgeLabel;html=1;align=center;verticalAlign=middle;resizable=0;points=[];" vertex="1" connectable="0" parent="FXenyZdL3_Z6IPaVlAPw-109">
          <mxGeometry x="0.6383" y="-1" relative="1" as="geometry">
            <mxPoint x="-72" y="-1" as="offset" />
          </mxGeometry>
        </mxCell>
        <mxCell id="FXenyZdL3_Z6IPaVlAPw-111" style="edgeStyle=orthogonalEdgeStyle;rounded=0;orthogonalLoop=1;jettySize=auto;html=1;exitX=0.25;exitY=1;exitDx=0;exitDy=0;entryX=0;entryY=0;entryDx=0;entryDy=0;startArrow=classic;startFill=1;endArrow=none;endFill=0;" edge="1" parent="1" source="FXenyZdL3_Z6IPaVlAPw-104" target="FXenyZdL3_Z6IPaVlAPw-108">
          <mxGeometry relative="1" as="geometry">
            <Array as="points">
              <mxPoint x="180" y="360" />
              <mxPoint x="402" y="360" />
            </Array>
          </mxGeometry>
        </mxCell>
        <mxCell id="FXenyZdL3_Z6IPaVlAPw-112" value="Detail Data &lt;br&gt;Karyawan" style="edgeLabel;html=1;align=center;verticalAlign=middle;resizable=0;points=[];" vertex="1" connectable="0" parent="FXenyZdL3_Z6IPaVlAPw-111">
          <mxGeometry x="0.4021" relative="1" as="geometry">
            <mxPoint x="25" as="offset" />
          </mxGeometry>
        </mxCell>
        <mxCell id="FXenyZdL3_Z6IPaVlAPw-104" value="ADMIN" style="rounded=1;whiteSpace=wrap;html=1;" vertex="1" parent="1">
          <mxGeometry x="150" y="150" width="120" height="60" as="geometry" />
        </mxCell>
        <mxCell id="FXenyZdL3_Z6IPaVlAPw-114" style="edgeStyle=orthogonalEdgeStyle;rounded=0;orthogonalLoop=1;jettySize=auto;html=1;exitX=1;exitY=0.5;exitDx=0;exitDy=0;entryX=0;entryY=0.5;entryDx=0;entryDy=0;" edge="1" parent="1" source="FXenyZdL3_Z6IPaVlAPw-108" target="FXenyZdL3_Z6IPaVlAPw-113">
          <mxGeometry relative="1" as="geometry" />
        </mxCell>
        <mxCell id="FXenyZdL3_Z6IPaVlAPw-116" value="Data Karyawan" style="edgeLabel;html=1;align=center;verticalAlign=middle;resizable=0;points=[];" vertex="1" connectable="0" parent="FXenyZdL3_Z6IPaVlAPw-114">
          <mxGeometry x="-0.2769" y="1" relative="1" as="geometry">
            <mxPoint x="23" y="1" as="offset" />
          </mxGeometry>
        </mxCell>
        <mxCell id="FXenyZdL3_Z6IPaVlAPw-108" value="3&lt;br&gt;Data Karyawan" style="ellipse;whiteSpace=wrap;html=1;aspect=fixed;" vertex="1" parent="1">
          <mxGeometry x="390" y="346" width="80" height="80" as="geometry" />
        </mxCell>
        <mxCell id="FXenyZdL3_Z6IPaVlAPw-117" style="edgeStyle=orthogonalEdgeStyle;rounded=0;orthogonalLoop=1;jettySize=auto;html=1;exitX=0.5;exitY=0;exitDx=0;exitDy=0;entryX=1;entryY=1;entryDx=0;entryDy=0;" edge="1" parent="1" source="FXenyZdL3_Z6IPaVlAPw-113" target="FXenyZdL3_Z6IPaVlAPw-99">
          <mxGeometry relative="1" as="geometry" />
        </mxCell>
        <mxCell id="FXenyZdL3_Z6IPaVlAPw-118" value="Melakukan" style="edgeLabel;html=1;align=center;verticalAlign=middle;resizable=0;points=[];" vertex="1" connectable="0" parent="FXenyZdL3_Z6IPaVlAPw-117">
          <mxGeometry x="-0.1915" y="-1" relative="1" as="geometry">
            <mxPoint as="offset" />
          </mxGeometry>
        </mxCell>
        <mxCell id="FXenyZdL3_Z6IPaVlAPw-162" style="edgeStyle=orthogonalEdgeStyle;rounded=0;orthogonalLoop=1;jettySize=auto;html=1;exitX=1;exitY=0.5;exitDx=0;exitDy=0;entryX=1;entryY=1;entryDx=0;entryDy=0;" edge="1" parent="1" source="FXenyZdL3_Z6IPaVlAPw-113">
          <mxGeometry relative="1" as="geometry">
            <mxPoint x="702" y="386" as="sourcePoint" />
            <mxPoint x="434.28427124749123" y="1028.2842712474908" as="targetPoint" />
            <Array as="points">
              <mxPoint x="936" y="386" />
              <mxPoint x="936" y="1028" />
            </Array>
          </mxGeometry>
        </mxCell>
        <mxCell id="FXenyZdL3_Z6IPaVlAPw-163" value="Data Karyawan" style="edgeLabel;html=1;align=center;verticalAlign=middle;resizable=0;points=[];" vertex="1" connectable="0" parent="FXenyZdL3_Z6IPaVlAPw-162">
          <mxGeometry x="0.569" y="-2" relative="1" as="geometry">
            <mxPoint x="1" as="offset" />
          </mxGeometry>
        </mxCell>
        <mxCell id="FXenyZdL3_Z6IPaVlAPw-113" value="Data Karyawan" style="shape=partialRectangle;whiteSpace=wrap;html=1;left=0;right=0;fillColor=none;" vertex="1" parent="1">
          <mxGeometry x="606" y="366" width="120" height="40" as="geometry" />
        </mxCell>
        <mxCell id="FXenyZdL3_Z6IPaVlAPw-123" style="edgeStyle=orthogonalEdgeStyle;rounded=0;orthogonalLoop=1;jettySize=auto;html=1;exitX=1;exitY=0.75;exitDx=0;exitDy=0;entryX=-0.012;entryY=0.588;entryDx=0;entryDy=0;entryPerimeter=0;" edge="1" parent="1" source="FXenyZdL3_Z6IPaVlAPw-119" target="FXenyZdL3_Z6IPaVlAPw-122">
          <mxGeometry relative="1" as="geometry">
            <Array as="points">
              <mxPoint x="330" y="485" />
              <mxPoint x="330" y="537" />
            </Array>
          </mxGeometry>
        </mxCell>
        <mxCell id="FXenyZdL3_Z6IPaVlAPw-124" value="Input Data &lt;br&gt;Laundrty" style="edgeLabel;html=1;align=center;verticalAlign=middle;resizable=0;points=[];" vertex="1" connectable="0" parent="FXenyZdL3_Z6IPaVlAPw-123">
          <mxGeometry x="-0.3177" relative="1" as="geometry">
            <mxPoint as="offset" />
          </mxGeometry>
        </mxCell>
        <mxCell id="FXenyZdL3_Z6IPaVlAPw-135" style="edgeStyle=orthogonalEdgeStyle;rounded=0;orthogonalLoop=1;jettySize=auto;html=1;exitX=0;exitY=1;exitDx=0;exitDy=0;entryX=0;entryY=0.5;entryDx=0;entryDy=0;" edge="1" parent="1" source="FXenyZdL3_Z6IPaVlAPw-119" target="FXenyZdL3_Z6IPaVlAPw-134">
          <mxGeometry relative="1" as="geometry" />
        </mxCell>
        <mxCell id="FXenyZdL3_Z6IPaVlAPw-136" value="Mengubah Status &lt;br&gt;Pesanan" style="edgeLabel;html=1;align=center;verticalAlign=middle;resizable=0;points=[];" vertex="1" connectable="0" parent="FXenyZdL3_Z6IPaVlAPw-135">
          <mxGeometry x="0.58" y="3" relative="1" as="geometry">
            <mxPoint as="offset" />
          </mxGeometry>
        </mxCell>
        <mxCell id="FXenyZdL3_Z6IPaVlAPw-144" style="edgeStyle=orthogonalEdgeStyle;rounded=0;orthogonalLoop=1;jettySize=auto;html=1;exitX=0.5;exitY=1;exitDx=0;exitDy=0;entryX=0;entryY=0;entryDx=0;entryDy=0;" edge="1" parent="1" source="FXenyZdL3_Z6IPaVlAPw-119" target="FXenyZdL3_Z6IPaVlAPw-141">
          <mxGeometry relative="1" as="geometry">
            <Array as="points">
              <mxPoint x="170" y="800" />
              <mxPoint x="402" y="800" />
            </Array>
          </mxGeometry>
        </mxCell>
        <mxCell id="FXenyZdL3_Z6IPaVlAPw-145" value="Input Data Pengambilan&lt;br&gt;Laundry" style="edgeLabel;html=1;align=center;verticalAlign=middle;resizable=0;points=[];" vertex="1" connectable="0" parent="FXenyZdL3_Z6IPaVlAPw-144">
          <mxGeometry x="0.3812" relative="1" as="geometry">
            <mxPoint as="offset" />
          </mxGeometry>
        </mxCell>
        <mxCell id="FXenyZdL3_Z6IPaVlAPw-119" value="KARYAWAN" style="rounded=1;whiteSpace=wrap;html=1;" vertex="1" parent="1">
          <mxGeometry x="110" y="440" width="120" height="60" as="geometry" />
        </mxCell>
        <mxCell id="FXenyZdL3_Z6IPaVlAPw-125" style="edgeStyle=orthogonalEdgeStyle;rounded=0;orthogonalLoop=1;jettySize=auto;html=1;exitX=0;exitY=1;exitDx=0;exitDy=0;entryX=0.917;entryY=1;entryDx=0;entryDy=0;entryPerimeter=0;" edge="1" parent="1" source="FXenyZdL3_Z6IPaVlAPw-122" target="FXenyZdL3_Z6IPaVlAPw-119">
          <mxGeometry relative="1" as="geometry" />
        </mxCell>
        <mxCell id="FXenyZdL3_Z6IPaVlAPw-126" value="Detail Transaksi &lt;br&gt;Laundry" style="edgeLabel;html=1;align=center;verticalAlign=middle;resizable=0;points=[];" vertex="1" connectable="0" parent="FXenyZdL3_Z6IPaVlAPw-125">
          <mxGeometry x="0.3475" relative="1" as="geometry">
            <mxPoint x="50" as="offset" />
          </mxGeometry>
        </mxCell>
        <mxCell id="FXenyZdL3_Z6IPaVlAPw-127" style="edgeStyle=orthogonalEdgeStyle;rounded=0;orthogonalLoop=1;jettySize=auto;html=1;exitX=0.5;exitY=1;exitDx=0;exitDy=0;entryX=0;entryY=0.5;entryDx=0;entryDy=0;" edge="1" parent="1" source="FXenyZdL3_Z6IPaVlAPw-122" target="FXenyZdL3_Z6IPaVlAPw-104">
          <mxGeometry relative="1" as="geometry">
            <Array as="points">
              <mxPoint x="430" y="590" />
              <mxPoint x="90" y="590" />
              <mxPoint x="90" y="180" />
            </Array>
          </mxGeometry>
        </mxCell>
        <mxCell id="FXenyZdL3_Z6IPaVlAPw-128" value="Informasi Data&lt;br&gt;&amp;nbsp;Laundry Masuk" style="edgeLabel;html=1;align=center;verticalAlign=middle;resizable=0;points=[];" vertex="1" connectable="0" parent="FXenyZdL3_Z6IPaVlAPw-127">
          <mxGeometry x="-0.3829" y="1" relative="1" as="geometry">
            <mxPoint as="offset" />
          </mxGeometry>
        </mxCell>
        <mxCell id="FXenyZdL3_Z6IPaVlAPw-130" style="edgeStyle=orthogonalEdgeStyle;rounded=0;orthogonalLoop=1;jettySize=auto;html=1;exitX=1;exitY=0.5;exitDx=0;exitDy=0;" edge="1" parent="1" source="FXenyZdL3_Z6IPaVlAPw-122" target="FXenyZdL3_Z6IPaVlAPw-129">
          <mxGeometry relative="1" as="geometry" />
        </mxCell>
        <mxCell id="FXenyZdL3_Z6IPaVlAPw-131" value="Data Laundry &lt;br&gt;Transaksi" style="edgeLabel;html=1;align=center;verticalAlign=middle;resizable=0;points=[];" vertex="1" connectable="0" parent="FXenyZdL3_Z6IPaVlAPw-130">
          <mxGeometry x="0.1692" y="-2" relative="1" as="geometry">
            <mxPoint x="-18" y="-2" as="offset" />
          </mxGeometry>
        </mxCell>
        <mxCell id="FXenyZdL3_Z6IPaVlAPw-122" value="4&lt;br&gt;Transaksi Masuk" style="ellipse;whiteSpace=wrap;html=1;aspect=fixed;" vertex="1" parent="1">
          <mxGeometry x="390" y="490" width="80" height="80" as="geometry" />
        </mxCell>
        <mxCell id="FXenyZdL3_Z6IPaVlAPw-132" style="edgeStyle=orthogonalEdgeStyle;rounded=0;orthogonalLoop=1;jettySize=auto;html=1;exitX=0.5;exitY=1;exitDx=0;exitDy=0;entryX=0.35;entryY=1.017;entryDx=0;entryDy=0;entryPerimeter=0;" edge="1" parent="1" source="FXenyZdL3_Z6IPaVlAPw-129" target="FXenyZdL3_Z6IPaVlAPw-119">
          <mxGeometry relative="1" as="geometry">
            <Array as="points">
              <mxPoint x="680" y="620" />
              <mxPoint x="152" y="620" />
            </Array>
          </mxGeometry>
        </mxCell>
        <mxCell id="FXenyZdL3_Z6IPaVlAPw-133" value="Ambil Data Transaksi &lt;br&gt;Laundry Masuk" style="edgeLabel;html=1;align=center;verticalAlign=middle;resizable=0;points=[];" vertex="1" connectable="0" parent="FXenyZdL3_Z6IPaVlAPw-132">
          <mxGeometry x="-0.0348" y="-3" relative="1" as="geometry">
            <mxPoint as="offset" />
          </mxGeometry>
        </mxCell>
        <mxCell id="FXenyZdL3_Z6IPaVlAPw-154" style="edgeStyle=orthogonalEdgeStyle;rounded=0;orthogonalLoop=1;jettySize=auto;html=1;exitX=0.5;exitY=0;exitDx=0;exitDy=0;entryX=0;entryY=0.5;entryDx=0;entryDy=0;" edge="1" parent="1" source="FXenyZdL3_Z6IPaVlAPw-129" target="FXenyZdL3_Z6IPaVlAPw-150">
          <mxGeometry relative="1" as="geometry" />
        </mxCell>
        <mxCell id="FXenyZdL3_Z6IPaVlAPw-155" value="Data Laundry&amp;nbsp;&lt;br&gt;Konsumen" style="edgeLabel;html=1;align=center;verticalAlign=middle;resizable=0;points=[];" vertex="1" connectable="0" parent="FXenyZdL3_Z6IPaVlAPw-154">
          <mxGeometry x="0.3739" y="1" relative="1" as="geometry">
            <mxPoint as="offset" />
          </mxGeometry>
        </mxCell>
        <mxCell id="FXenyZdL3_Z6IPaVlAPw-160" style="edgeStyle=orthogonalEdgeStyle;rounded=0;orthogonalLoop=1;jettySize=auto;html=1;exitX=1;exitY=0.75;exitDx=0;exitDy=0;entryX=1;entryY=0.5;entryDx=0;entryDy=0;" edge="1" parent="1" source="FXenyZdL3_Z6IPaVlAPw-129" target="FXenyZdL3_Z6IPaVlAPw-159">
          <mxGeometry relative="1" as="geometry" />
        </mxCell>
        <mxCell id="FXenyZdL3_Z6IPaVlAPw-161" value="Data Transaksi&lt;br&gt;Laundry" style="edgeLabel;html=1;align=center;verticalAlign=middle;resizable=0;points=[];" vertex="1" connectable="0" parent="FXenyZdL3_Z6IPaVlAPw-160">
          <mxGeometry x="0.7347" relative="1" as="geometry">
            <mxPoint as="offset" />
          </mxGeometry>
        </mxCell>
        <mxCell id="FXenyZdL3_Z6IPaVlAPw-129" value="Data Transaksi Laundry" style="shape=partialRectangle;whiteSpace=wrap;html=1;left=0;right=0;fillColor=none;" vertex="1" parent="1">
          <mxGeometry x="620" y="510" width="120" height="40" as="geometry" />
        </mxCell>
        <mxCell id="FXenyZdL3_Z6IPaVlAPw-137" style="edgeStyle=orthogonalEdgeStyle;rounded=0;orthogonalLoop=1;jettySize=auto;html=1;exitX=1;exitY=0.5;exitDx=0;exitDy=0;entryX=0.333;entryY=1;entryDx=0;entryDy=0;entryPerimeter=0;" edge="1" parent="1" source="FXenyZdL3_Z6IPaVlAPw-134" target="FXenyZdL3_Z6IPaVlAPw-129">
          <mxGeometry relative="1" as="geometry" />
        </mxCell>
        <mxCell id="FXenyZdL3_Z6IPaVlAPw-138" value="Data Update Status" style="edgeLabel;html=1;align=center;verticalAlign=middle;resizable=0;points=[];" vertex="1" connectable="0" parent="FXenyZdL3_Z6IPaVlAPw-137">
          <mxGeometry x="-0.6278" relative="1" as="geometry">
            <mxPoint as="offset" />
          </mxGeometry>
        </mxCell>
        <mxCell id="FXenyZdL3_Z6IPaVlAPw-139" style="edgeStyle=orthogonalEdgeStyle;rounded=0;orthogonalLoop=1;jettySize=auto;html=1;exitX=0;exitY=1;exitDx=0;exitDy=0;entryX=0.25;entryY=1;entryDx=0;entryDy=0;" edge="1" parent="1" source="FXenyZdL3_Z6IPaVlAPw-134" target="FXenyZdL3_Z6IPaVlAPw-119">
          <mxGeometry relative="1" as="geometry" />
        </mxCell>
        <mxCell id="FXenyZdL3_Z6IPaVlAPw-140" value="Data Status Pesanan" style="edgeLabel;html=1;align=center;verticalAlign=middle;resizable=0;points=[];" vertex="1" connectable="0" parent="FXenyZdL3_Z6IPaVlAPw-139">
          <mxGeometry x="-0.2521" y="-3" relative="1" as="geometry">
            <mxPoint as="offset" />
          </mxGeometry>
        </mxCell>
        <mxCell id="FXenyZdL3_Z6IPaVlAPw-134" value="5&lt;br&gt;Perubahan Status" style="ellipse;whiteSpace=wrap;html=1;aspect=fixed;" vertex="1" parent="1">
          <mxGeometry x="390" y="680" width="80" height="80" as="geometry" />
        </mxCell>
        <mxCell id="FXenyZdL3_Z6IPaVlAPw-142" style="edgeStyle=orthogonalEdgeStyle;rounded=0;orthogonalLoop=1;jettySize=auto;html=1;exitX=0;exitY=0.5;exitDx=0;exitDy=0;entryX=0;entryY=0.25;entryDx=0;entryDy=0;" edge="1" parent="1" source="FXenyZdL3_Z6IPaVlAPw-141" target="FXenyZdL3_Z6IPaVlAPw-104">
          <mxGeometry relative="1" as="geometry">
            <Array as="points">
              <mxPoint x="70" y="870" />
              <mxPoint x="70" y="165" />
            </Array>
          </mxGeometry>
        </mxCell>
        <mxCell id="FXenyZdL3_Z6IPaVlAPw-143" value="Informasi Data&lt;br style=&quot;border-color: var(--border-color);&quot;&gt;&amp;nbsp;Laundry Keluar" style="edgeLabel;html=1;align=center;verticalAlign=middle;resizable=0;points=[];" vertex="1" connectable="0" parent="FXenyZdL3_Z6IPaVlAPw-142">
          <mxGeometry x="-0.6489" y="-1" relative="1" as="geometry">
            <mxPoint as="offset" />
          </mxGeometry>
        </mxCell>
        <mxCell id="FXenyZdL3_Z6IPaVlAPw-146" style="edgeStyle=orthogonalEdgeStyle;rounded=0;orthogonalLoop=1;jettySize=auto;html=1;exitX=0;exitY=0;exitDx=0;exitDy=0;entryX=0.683;entryY=1.033;entryDx=0;entryDy=0;entryPerimeter=0;" edge="1" parent="1" source="FXenyZdL3_Z6IPaVlAPw-141" target="FXenyZdL3_Z6IPaVlAPw-119">
          <mxGeometry relative="1" as="geometry" />
        </mxCell>
        <mxCell id="FXenyZdL3_Z6IPaVlAPw-147" value="Data Pengambilan&amp;nbsp;&lt;br&gt;Laundry" style="edgeLabel;html=1;align=center;verticalAlign=middle;resizable=0;points=[];" vertex="1" connectable="0" parent="FXenyZdL3_Z6IPaVlAPw-146">
          <mxGeometry x="-0.7608" y="-3" relative="1" as="geometry">
            <mxPoint as="offset" />
          </mxGeometry>
        </mxCell>
        <mxCell id="FXenyZdL3_Z6IPaVlAPw-148" style="edgeStyle=orthogonalEdgeStyle;rounded=0;orthogonalLoop=1;jettySize=auto;html=1;exitX=1;exitY=0.5;exitDx=0;exitDy=0;entryX=0.75;entryY=1;entryDx=0;entryDy=0;" edge="1" parent="1" source="FXenyZdL3_Z6IPaVlAPw-141" target="FXenyZdL3_Z6IPaVlAPw-129">
          <mxGeometry relative="1" as="geometry" />
        </mxCell>
        <mxCell id="FXenyZdL3_Z6IPaVlAPw-149" value="Data Update &lt;br&gt;Status Pengambilan" style="edgeLabel;html=1;align=center;verticalAlign=middle;resizable=0;points=[];" vertex="1" connectable="0" parent="FXenyZdL3_Z6IPaVlAPw-148">
          <mxGeometry x="-0.6429" y="1" relative="1" as="geometry">
            <mxPoint as="offset" />
          </mxGeometry>
        </mxCell>
        <mxCell id="FXenyZdL3_Z6IPaVlAPw-141" value="6&lt;br&gt;Pengambilan Laundry" style="ellipse;whiteSpace=wrap;html=1;aspect=fixed;" vertex="1" parent="1">
          <mxGeometry x="390" y="830" width="80" height="80" as="geometry" />
        </mxCell>
        <mxCell id="FXenyZdL3_Z6IPaVlAPw-151" style="edgeStyle=orthogonalEdgeStyle;rounded=0;orthogonalLoop=1;jettySize=auto;html=1;exitX=0.5;exitY=1;exitDx=0;exitDy=0;entryX=1;entryY=0.5;entryDx=0;entryDy=0;" edge="1" parent="1" source="FXenyZdL3_Z6IPaVlAPw-150" target="FXenyZdL3_Z6IPaVlAPw-129">
          <mxGeometry relative="1" as="geometry" />
        </mxCell>
        <mxCell id="FXenyZdL3_Z6IPaVlAPw-152" value="Memantau Status &lt;br&gt;Laundry" style="edgeLabel;html=1;align=center;verticalAlign=middle;resizable=0;points=[];" vertex="1" connectable="0" parent="FXenyZdL3_Z6IPaVlAPw-151">
          <mxGeometry x="0.6009" y="2" relative="1" as="geometry">
            <mxPoint x="51" y="-2" as="offset" />
          </mxGeometry>
        </mxCell>
        <mxCell id="FXenyZdL3_Z6IPaVlAPw-150" value="KONSUMEN" style="rounded=1;whiteSpace=wrap;html=1;" vertex="1" parent="1">
          <mxGeometry x="808" y="426" width="120" height="60" as="geometry" />
        </mxCell>
        <mxCell id="FXenyZdL3_Z6IPaVlAPw-157" style="edgeStyle=orthogonalEdgeStyle;rounded=0;orthogonalLoop=1;jettySize=auto;html=1;exitX=0.5;exitY=0;exitDx=0;exitDy=0;entryX=0.5;entryY=1;entryDx=0;entryDy=0;" edge="1" parent="1" source="FXenyZdL3_Z6IPaVlAPw-156" target="FXenyZdL3_Z6IPaVlAPw-96">
          <mxGeometry relative="1" as="geometry">
            <Array as="points">
              <mxPoint x="170" y="920" />
              <mxPoint x="970" y="920" />
              <mxPoint x="970" y="190" />
              <mxPoint x="430" y="190" />
            </Array>
          </mxGeometry>
        </mxCell>
        <mxCell id="FXenyZdL3_Z6IPaVlAPw-158" value="Input Data Admin" style="edgeLabel;html=1;align=center;verticalAlign=middle;resizable=0;points=[];" vertex="1" connectable="0" parent="FXenyZdL3_Z6IPaVlAPw-157">
          <mxGeometry x="-0.5757" relative="1" as="geometry">
            <mxPoint x="1" as="offset" />
          </mxGeometry>
        </mxCell>
        <mxCell id="FXenyZdL3_Z6IPaVlAPw-156" value="PEMILIK" style="rounded=1;whiteSpace=wrap;html=1;" vertex="1" parent="1">
          <mxGeometry x="110" y="940" width="120" height="60" as="geometry" />
        </mxCell>
        <mxCell id="FXenyZdL3_Z6IPaVlAPw-164" style="edgeStyle=orthogonalEdgeStyle;rounded=0;orthogonalLoop=1;jettySize=auto;html=1;exitX=0;exitY=0.5;exitDx=0;exitDy=0;entryX=1;entryY=0.5;entryDx=0;entryDy=0;" edge="1" parent="1" source="FXenyZdL3_Z6IPaVlAPw-159" target="FXenyZdL3_Z6IPaVlAPw-156">
          <mxGeometry relative="1" as="geometry" />
        </mxCell>
        <mxCell id="FXenyZdL3_Z6IPaVlAPw-165" value="Laporan Karyawan" style="edgeLabel;html=1;align=center;verticalAlign=middle;resizable=0;points=[];" vertex="1" connectable="0" parent="FXenyZdL3_Z6IPaVlAPw-164">
          <mxGeometry x="-0.2654" y="-1" relative="1" as="geometry">
            <mxPoint as="offset" />
          </mxGeometry>
        </mxCell>
        <mxCell id="FXenyZdL3_Z6IPaVlAPw-166" style="edgeStyle=orthogonalEdgeStyle;rounded=0;orthogonalLoop=1;jettySize=auto;html=1;exitX=0;exitY=1;exitDx=0;exitDy=0;entryX=0.75;entryY=1;entryDx=0;entryDy=0;" edge="1" parent="1" source="FXenyZdL3_Z6IPaVlAPw-159" target="FXenyZdL3_Z6IPaVlAPw-156">
          <mxGeometry relative="1" as="geometry" />
        </mxCell>
        <mxCell id="FXenyZdL3_Z6IPaVlAPw-167" value="Laporan Transaksi" style="edgeLabel;html=1;align=center;verticalAlign=middle;resizable=0;points=[];" vertex="1" connectable="0" parent="FXenyZdL3_Z6IPaVlAPw-166">
          <mxGeometry x="0.2156" y="2" relative="1" as="geometry">
            <mxPoint as="offset" />
          </mxGeometry>
        </mxCell>
        <mxCell id="FXenyZdL3_Z6IPaVlAPw-168" style="edgeStyle=orthogonalEdgeStyle;rounded=0;orthogonalLoop=1;jettySize=auto;html=1;exitX=0.5;exitY=1;exitDx=0;exitDy=0;entryX=0.426;entryY=1.001;entryDx=0;entryDy=0;entryPerimeter=0;" edge="1" parent="1" source="FXenyZdL3_Z6IPaVlAPw-159" target="FXenyZdL3_Z6IPaVlAPw-156">
          <mxGeometry relative="1" as="geometry" />
        </mxCell>
        <mxCell id="FXenyZdL3_Z6IPaVlAPw-169" value="Laporan&lt;br&gt;Penghasilan" style="edgeLabel;html=1;align=center;verticalAlign=middle;resizable=0;points=[];" vertex="1" connectable="0" parent="FXenyZdL3_Z6IPaVlAPw-168">
          <mxGeometry x="0.3573" relative="1" as="geometry">
            <mxPoint as="offset" />
          </mxGeometry>
        </mxCell>
        <mxCell id="FXenyZdL3_Z6IPaVlAPw-159" value="7&lt;br&gt;Laporan" style="ellipse;whiteSpace=wrap;html=1;aspect=fixed;" vertex="1" parent="1">
          <mxGeometry x="390" y="960" width="80" height="80" as="geometry" />
        </mxCell>
      </root>
    </mxGraphModel>
  </diagram>
</mxfile>
